# xmcd
#
# Track frame offsets: 
#        150
#        19878
#        41499
#        61059
#
# Disc length: 1159 seconds
#
# Revision: 1
# Processed by: cddbd v1.5.2PL0 Copyright (c) Steve Scherf et al.
# Submitted via: ExactAudioCopy v0.95a4
#
DISCID=29048504
DTITLE=Rhapsody - Dawn Of Victory Lim.Ed. CD2
DYEAR=1997
DGENRE=Metal
TTITLE0=Guardians
TTITLE1=The Mighty Ride Of The Firelord
TTITLE2=Holy Thunderforce
TTITLE3=Triumph For My Magic Steel
EXTD=
EXTT0=
EXTT1=
EXTT2=
EXTT3=
PLAYORDER=
